<?xml version="1.0" standalone="no"?>
<svg viewBox="0 0 200 200" xmlns="http://www.w3.org/2000/svg">
  <path fill="#2563EB" d="M38.9,-63.1C50.3,-53.2,59.4,-42.2,67.3,-29.4C75.2,-16.6,81.9,-1.9,81.8,13.1C81.7,28.1,74.7,43.4,63.6,53.8C52.6,64.3,37.3,69.8,22.3,72.7C7.3,75.6,-7.6,76,-22.5,73.2C-37.4,70.4,-52.4,64.4,-61.8,53.5C-71.2,42.7,-75.1,27,-76.7,11.4C-78.3,-4.1,-77.6,-19.6,-72.8,-34.6C-68,-49.5,-59.2,-63.9,-46.3,-73.2C-33.5,-82.5,-16.8,-86.7,-1.5,-84.3C13.7,-82,27.5,-73.1,38.9,-63.1Z" transform="translate(100 100)" />
</svg>
